# xmcd
#
# Track frame offsets: 
#        150
#        16796
#        31513
#        45568
#        62152
#        80085
#        96022
#        111437
#        126821
#        141273
#        159336
#        174714
#        194421
#        210609
#        227766
#        246536
#        266286
#        286277
#        302284
#        320343
#        338550
#
# Disc length: 4727 seconds
#
# Revision: 0
# Processed by: cddbd v1.5.2PL0 Copyright (c) Steve Scherf et al.
# Submitted via: ExactAudioCopy v0.99pb5
#
DISCID=1e127515
DTITLE=Various Artist - Purre Urban
DYEAR=2010
DGENRE=R&B
TTITLE0=Jason Derulo- Whatcha Say
TTITLE1=JLS- Beat Again
TTITLE2=Shakira- She Wolf
TTITLE3=Ciara feat. Justin Timberlake- Love Sex Magic
TTITLE4=Pitbill- Hotel Room Service
TTITLE5=Jordin Sparks- S.O.S
TTITLE6=Flo Rida feat. Kesha- Right Round
TTITLE7=Craig David- Insomnia
TTITLE8=Cassie- Me and U
TTITLE9=Ol' Dirty Bastard- Got Your Money
TTITLE10=Mase- Feels So Good
TTITLE11=Jamie Foxx feat. T-Pain- Blame it
TTITLE12=Trey Songz- I Need A Girl
TTITLE13=Brandy- Afrodisiac
TTITLE14=Kano feat. Craig David- This Is The Girl
TTITLE15=Pleasure P- Boyfriend no.2
TTITLE16=Chris Brown- Poppin'
TTITLE17=Alesha Dixon- Breathe Slow
TTITLE18=Usher- Moving Mountains
TTITLE19=Ginuwine- Last Chanse
TTITLE20=McLean- Broken
EXTD=
EXTT0=
EXTT1=
EXTT2=
EXTT3=
EXTT4=
EXTT5=
EXTT6=
EXTT7=
EXTT8=
EXTT9=
EXTT10=
EXTT11=
EXTT12=
EXTT13=
EXTT14=
EXTT15=
EXTT16=
EXTT17=
EXTT18=
EXTT19=
EXTT20=
PLAYORDER=
